<svg xmlns="http://www.w3.org/2000/svg" viewBox="0 0 900 900"><defs><style>.cls-1{fill:#fff;}</style></defs><g id="Capa_2" data-name="Capa 2"><g id="Capa_1-2" data-name="Capa 1"><path class="cls-1" d="M897.4,219.38c-11.15-60.92-45.53-103.1-105.31-123.09-63.24-21.15-115.94-1.8-161.54,42.43-44.64,43.31-88.35,87.59-132,131.93-53.25,54.12-45.08,52.61-96.61.58-43.78-44.2-88-88-132-131.9-14.29-14.25-32.22-19.37-47.11-5.46-16.18,15.12-11.69,33.91,2.93,49.7,4.93,5.32,10.1,10.42,15.22,15.56q90,90.4,179.93,180.76c29,29.14,29.13,29.11,58.42-.28,65.14-65.36,129.95-131,195.48-196,32.78-32.49,82.08-39.81,116.54-19.09,52.51,31.57,60.78,100.64,16.09,146.81C748.35,372.39,687,431.25,629,493.34c-13.26,14.19-22.54,37.4-23.51,57-3.16,63.88,2.17,81.79-1.38,183.86-1.65,47.19-7.12,81.67-22.71,117.51A263.92,263.92,0,0,1,564,884.88c66.3-12.65,103.48-88.13,103.58-139.65.1-50.91,2.49-102-.65-152.69-2.34-38,11.16-64.42,38.08-89.69,50.58-47.51,98.78-97.61,147.28-147.31C889.17,317.78,907.09,272.34,897.4,219.38Z"/><path class="cls-1" d="M579.76,453c56-52.31,108.23-108.66,163.11-162.2a54.48,54.48,0,0,0,10-12.44,30.87,30.87,0,0,0,5-16.86h0a31,31,0,0,0-53.67-21.26c-2.1,1.83-4.22,3.88-6.39,6.08-63.33,64.2-126.59,128.47-191.08,191.48-19.34,18.89-27.52,38.88-27.08,66,1.31,80,1.17,160,.05,239.95-.84,60.07-44.73,98.08-103.78,92.4-46.64-4.49-78.56-42.45-79.77-98.58-1.33-61.26-1.14-122.58-.17-183.86.4-25.59-6.92-45.16-25.73-63.44,0,0-113-108.19-169-169.41-32.44-35.43-53.76-64.47-68.38-103.3a269.75,269.75,0,0,1-12.23-43C-14.59,235.71-3.85,303.11,46.63,354.57,98.87,407.83,151.32,460.91,204.71,513c19.06,18.6,28.61,38.13,27.75,65.66-1.73,55-.67,110.11.28,165.15.68,39.72,13.6,75.56,40.46,105.13,46.33,51,104.51,60.8,167.57,42.55,55.94-16.2,97.83-73.29,100.15-136.8,2.54-69.51,3-139.23.68-208.74C540.34,507.57,551.45,479.39,579.76,453Z"/><path class="cls-1" d="M329.05,462.69c20,19.53,29.77,40.09,29.07,68.5-1.52,62.28-.28,124.62-.51,186.94,0,3.4,0,6.69.27,9.8,0,.06,0,.11,0,.17h0a31.14,31.14,0,0,0,1.53,9.61,22.28,22.28,0,0,0,7.07,11.77A30.82,30.82,0,0,0,388.8,759h0a30.93,30.93,0,0,0,30.89-29.46,86,86,0,0,0,.5-10.86c-.86-71.66-1.29-143.35.21-215,.57-27.25-8.34-46.92-27.48-65.77Q284.4,331.06,178.2,221.78c-37.22-38.52-36-96.63-.55-131.88,35.17-35,93.16-34.18,131.16,2.58,32,31,63.76,62.25,94.76,94.24,23,23.77,34.27,35.52,45.56,35.61,20.56.17,35.79-20.77,47-35.49C524.22,150,609.37,38.24,705.58,19.94A157.34,157.34,0,0,1,727,17.38C656.55-13,599.51-.67,549.07,45.06,522.24,69.38,497,95.53,472,121.79c-15.46,16.26-28.35,17.06-44.14.38-24.93-26.32-50.49-52.11-77-76.86C313.37,10.22,269-7.16,217.47,2.77,155.55,14.71,113.67,50.31,94.6,112.08c-19.36,62.74.27,114.52,43.62,159Q232.58,367.93,329.05,462.69Z"/></g></g></svg>